<?xml version="1.0" encoding="UTF-8" standalone="no"?>
<svg width="512px" height="512px" viewBox="0 0 512 512" version="1.1" xmlns="http://www.w3.org/2000/svg" xmlns:xlink="http://www.w3.org/1999/xlink">
    <!-- Generator: Sketch 41 (35326) - http://www.bohemiancoding.com/sketch -->
    <title>La Kaz Créole - Logotype_Vector</title>
    <desc>Created with Sketch.</desc>
    <defs>
        <linearGradient x1="50%" y1="100%" x2="50%" y2="14.9142599%" id="linearGradient-1">
            <stop stop-color="#FF2152" offset="0%"></stop>
            <stop stop-color="#FF8D10" offset="80.4738504%"></stop>
            <stop stop-color="#FFA700" offset="100%"></stop>
        </linearGradient>
    </defs>
    <g id="Page-1" stroke="none" stroke-width="1" fill="none" fill-rule="evenodd">
        <g id="La-Kaz-Créole---Logotype">
            <g id="flock-of-birds" transform="translate(270.000000, 80.000000)">
                <g id="Capa_1">
                    <g id="Group"></g>
                </g>
            </g>
            <g id="Group-3" transform="translate(54.000000, 54.000000)">
                <circle id="Oval" fill="url(#linearGradient-1)" cx="202.5" cy="202.5" r="202.5"></circle>
                <circle id="Oval" stroke="#FDFEFE" stroke-width="3" cx="203" cy="203" r="189"></circle>
                <polygon id="Page-1" fill-opacity="0.421846694" fill="#272727" points="314.177811 216.485339 314.092779 216.513532 309.826151 218.961284 302.714346 243.608416 306.042434 277.106652 294.294315 289.316765 288.577134 290.084786 288.520294 290.084786 269.234299 292.646218 260.814722 293.984001 259.392361 296.659567 259.363714 296.688214 258.595694 298.196062 246.989902 298.594851 246.961709 298.623498 233.962204 299.079127 227.305573 294.183622 212.002461 293.984001 206.910518 292.190589 197.040388 288.54829 197.011741 288.54829 188.051504 285.217929 187.994209 285.217929 182.874074 283.311292 182.817234 283.282645 180.513173 282.429137 180.484526 282.400945 177.611611 279.098776 165.636133 276.452311 160.317285 268.682074 152.778954 264.242198 144.78545 262.221881 144.72861 262.193234 136.138514 260.030136 132.810426 251.57782 129.709697 249.15826 120.407966 243.380147 116.169531 232.395046 116.141338 232.366853 115.515645 230.715769 118.615919 225.165924 115.970364 215.176203 111.760576 211.646675 111.305857 209.426737 105.303567 198.981388 92.446388 185.462138 92.4750353 185.007419 92.4750353 184.950579 92.901107 177.009822 90 172.570401 97.1113498 164.373182 102.430652 164.600996 106.128427 161.15741 106.157074 161.129217 107.266134 160.104281 107.294781 160.075633 111.533216 156.14868 111.87471 154.810443 111.87471 154.753603 113.524431 148.179276 111.305857 141.291648 113.75179 128.626361 119.498074 128.854175 125.272095 129.964599 127.064142 128.854175 143.90375 115.762361 151.896799 108.675566 153.205481 108.390912 153.262775 108.390912 162.365339 106.455628 162.393532 106.455628 164.527073 106 171.865783 106 178.294599 110.212516 178.635638 110.212516 178.663831 110.212516 182.191541 110.098382 182.248381 110.098382 191.606497 109.785535 197.011741 110.098382 197.068581 110.127029 198.689654 110.212516 205.801004 112.659814 216.440063 112.659814 227.078213 113.541969 231.743175 118.209659 236.408592 118.864454 244.600354 119.974423 251.285177 126.975731 251.313824 127.004378 259.193195 135.314822 259.221842 135.343469 262.122494 138.388722 262.122494 139.72605 262.122494 152.590505 268.352599 161.925885 274.866448 168.671186 274.89464 168.699378 275.435301 169.240494 275.207942 172.798215 287.638594 187.881698 291.905222 192.521195 291.933869 192.549388 295.404284 196.334923 303.596046 198.554861 304.933375 199.408369 304.961567 199.437016 310.93521 203.421718 314.491112 216.285717"></polygon>
                <g id="Group" transform="translate(100.000000, 116.000000)" font-weight="normal" font-family="KaushanScript-Regular, Kaushan Script" fill="#FDFEFE" fill-opacity="0.820170969">
                    <text id="La-Kaz" font-size="70" letter-spacing="-0.204750061">
                        <tspan x="0" y="76">La Kaz </tspan>
                    </text>
                    <text id="Créole" font-size="80" letter-spacing="-0.234000057">
                        <tspan x="0" y="145">Créole</tspan>
                    </text>
                </g>
                <path d="M249.237721,80.5218308 C247.098462,80.0723158 244.982578,80.470566 243.227892,81.4771419 C242.030626,79.85025 240.258716,78.6343327 238.11958,78.1849401 C233.515666,77.2169045 228.991225,80.1449918 228.017985,84.7255423 C228.014171,84.7431608 228.010603,84.7609016 228.006913,84.77852 C227.97505,84.9307238 228.055753,85.0847628 228.199199,85.1474062 C228.342521,85.2102942 228.510203,85.1652693 228.601978,85.0391261 C230.436138,82.5310674 233.68101,81.9380355 237.165778,82.6705467 C239.304913,83.1200617 241.07793,84.3364684 242.274212,85.9627485 C244.028899,84.9569067 246.146013,84.5581671 248.285025,85.0073151 C251.769794,85.7392145 254.494275,87.5871935 255.152944,90.6180551 C255.186038,90.7703812 255.320625,90.8786612 255.477481,90.8792729 C255.634213,90.880007 255.768801,90.7716047 255.803001,90.6200127 C255.806815,90.6022719 255.810383,90.5853875 255.814073,90.5682585 C256.787683,85.9870963 253.841635,81.4891322 249.237721,80.5218308 Z" id="Shape" fill-opacity="0.647814764" fill="#272727"></path>
                <path d="M290.220445,79.1708647 C288.736645,78.4829335 287.125666,78.4179501 285.673498,78.856724 C285.076673,77.468888 283.991487,76.2836216 282.507797,75.5956904 C279.312873,74.1147878 275.514338,75.490106 274.025066,78.6676517 C274.025066,78.6676517 274.024081,78.6686314 274.024081,78.6698287 C273.972749,78.7786786 274.005584,78.9087542 274.102556,78.9812482 C274.198324,79.0538511 274.333384,79.0500414 274.424883,78.971996 C276.187339,77.4747659 278.642826,77.5923238 281.049061,78.7075996 C282.532861,79.3956397 283.618813,80.5807972 284.214762,81.9687421 C285.665837,81.5297505 287.278019,81.5948427 288.761819,82.2823386 C291.216102,83.4203641 292.903476,85.2638457 292.814056,87.6364465 C292.810882,87.7421398 292.881477,87.8357507 292.984031,87.86231 C293.08746,87.8882163 293.194282,87.8390162 293.241126,87.7447522 C293.264001,87.6987087 293.286876,87.6525563 293.308547,87.6061863 C294.797818,84.4285317 293.414384,80.651332 290.220445,79.1708647 Z" id="Shape" fill-opacity="0.647814764" fill="#272727"></path>
                <path d="M216.15767,53.4137032 C216.267308,53.4594056 216.395219,53.4226997 216.465597,53.3251772 C217.778361,51.4600146 220.156749,50.967544 222.735416,51.4420215 C224.325532,51.7338693 225.659824,52.6005959 226.574561,53.7816617 C227.852949,53.0036409 229.412489,52.6686098 231.004232,52.9613572 C233.5829,53.435115 235.624775,54.7405129 236.183097,56.9495233 C236.211864,57.0652188 236.318245,57.1449281 236.43693,57.1402499 C236.555795,57.1368312 236.656749,57.0508243 236.678278,56.9335094 C237.312045,53.5272395 235.048541,50.2544783 231.623525,49.6250804 C230.031782,49.3330527 228.474232,49.6670042 227.195482,50.4452049 C226.280745,49.2641392 224.944643,48.3974125 223.354709,48.1055648 C219.927884,47.4759869 216.638015,49.7271011 216.004068,53.1342707 C215.9829,53.2515855 216.045861,53.3681807 216.15767,53.4137032 Z" id="Shape" fill-opacity="0.647814764" fill="#272727"></path>
                <path d="M292.062789,56.1259894 C292.971917,56.9390967 293.486999,58.0226399 293.607855,59.1436088 C294.740239,59.1445084 295.880042,59.5421555 296.791341,60.3561624 C298.325552,61.7286745 299.126851,63.4551105 298.473184,65.1653527 C298.448036,65.2290482 298.473184,65.3006607 298.529088,65.3373665 C298.586802,65.3740724 298.662427,65.3659755 298.711095,65.3175742 C298.765009,65.2632351 298.819105,65.2067368 298.871391,65.1486191 C300.632295,63.2008683 300.473989,60.201242 298.514795,58.4479963 C297.605305,57.6341693 296.467493,57.2374219 295.334746,57.2365223 C295.214253,56.1164531 294.695552,55.0321901 293.787871,54.2180032 C291.828858,52.4647575 288.812542,52.6232766 287.049647,54.5708475 C286.988496,54.639761 286.983249,54.7392627 287.037164,54.8124946 C287.089269,54.8850067 287.186424,54.9109167 287.269466,54.8752904 C288.857411,54.1892143 290.588101,54.8070967 292.062789,56.1259894 Z" id="Shape" fill-opacity="0.647814764" fill="#272727"></path>
                <path d="M224.877562,94.3390064 C224.80036,94.261804 224.645955,94.1846015 224.568753,94.1073991 L224.259943,94.0301966 L204.496113,113.794027 L201.562419,111.014738 C201.099204,110.551523 200.9448,109.856701 201.099204,109.239081 C201.871229,106.845805 201.176407,104.066517 199.246345,102.136455 L188.283596,91.1737055 C188.051989,90.9420982 187.743179,90.9420982 187.588774,91.1737055 C187.357166,91.4053129 187.357166,91.7141228 187.588774,91.8685277 L198.551523,102.831277 C200.172775,104.452529 200.867597,106.845805 200.172775,108.930272 C199.863965,109.933904 200.095572,111.014738 200.867597,111.70956 L203.801291,114.488849 L202.488849,115.801291 L199.70956,112.867597 C199.014738,112.095572 197.933904,111.863965 196.930272,112.172775 C194.845805,112.867597 192.452529,112.172775 190.831277,110.551523 L179.868528,99.5887738 C179.63692,99.3571664 179.32811,99.3571664 179.173706,99.5887738 C178.942098,99.8203812 178.942098,100.129191 179.173706,100.283596 L190.136455,111.246345 C192.066517,113.176407 194.845805,113.871229 197.239081,113.099204 C197.856701,112.867597 198.551523,113.099204 199.014738,113.562419 L201.794027,116.496113 L188.051989,130.315353 C187.588774,130.778568 187.279964,131.396188 187.279964,132.09101 C187.279964,132.785832 187.511571,133.403452 187.974786,133.866667 C188.438001,134.329881 189.055621,134.561489 189.750443,134.561489 L189.750443,134.561489 C190.445265,134.561489 191.062885,134.252679 191.526099,133.789464 L202.566051,122.05469 L202.566051,122.05469 C202.643254,121.977487 202.874861,121.900285 203.106468,121.668678 C203.646886,121.359868 204.41891,120.896653 205.34534,120.279033 L218.160948,133.789464 C218.624163,134.252679 219.241783,134.561489 219.936605,134.561489 L219.936605,134.561489 C220.631427,134.561489 221.249047,134.329881 221.712262,133.789464 C222.175476,133.326249 222.484286,132.631427 222.484286,131.936605 C222.484286,131.241783 222.175476,130.624163 221.712262,130.160948 L208.973856,117.96296 C210.749512,116.72772 212.679574,115.183671 214.686838,113.485217 C220.70863,108.158247 224.259943,102.754075 225.263575,97.5043073 L225.263575,97.4271049 C225.340777,96.7322827 225.495182,94.9566261 224.877562,94.3390064 Z M221.171844,130.932973 C221.480654,131.241783 221.635059,131.627795 221.635059,132.013807 C221.635059,132.39982 221.480654,132.863035 221.171844,133.094642 C220.863035,133.403452 220.477022,133.557857 220.09101,133.557857 C219.704998,133.557857 219.318985,133.403452 219.010175,133.094642 L206.348972,119.815819 C206.889389,119.429806 207.507009,119.043794 208.124628,118.580579 L221.171844,130.932973 Z M224.337145,97.3499024 C223.410716,102.445265 219.936605,107.61783 213.992015,112.790395 C209.282665,116.959328 204.496113,119.815819 202.720456,120.896653 C202.334444,121.12826 202.180039,121.205463 202.102836,121.282665 L201.948432,121.282665 L190.831277,133.094642 C190.522467,133.403452 190.213657,133.557857 189.750443,133.557857 L189.750443,133.557857 C189.36443,133.557857 188.978418,133.403452 188.669608,133.094642 C188.438001,132.863035 188.283596,132.477022 188.283596,132.09101 C188.283596,131.704998 188.438001,131.318985 188.746811,131.010175 L224.259943,95.4198409 C224.337145,95.7286507 224.414348,96.4234729 224.337145,97.3499024 Z M181.952994,97.5043073 C181.721387,97.2727 181.721387,96.9638901 181.952994,96.8094852 C182.184602,96.5778778 182.493411,96.5778778 182.647816,96.8094852 L193.301756,107.386222 C193.533363,107.61783 193.533363,107.92664 193.301756,108.081045 C193.224553,108.158247 193.070149,108.235449 192.915744,108.235449 C192.761339,108.235449 192.684136,108.158247 192.529731,108.081045 L181.952994,97.5043073 Z M184.809485,94.6478163 C184.577878,94.4162089 184.577878,94.1073991 184.809485,93.9529941 C185.041093,93.7213868 185.349902,93.7213868 185.504307,93.9529941 L196.158247,104.606934 C196.389854,104.838541 196.389854,105.147351 196.158247,105.301756 C196.081045,105.378958 195.92664,105.456161 195.772235,105.456161 C195.61783,105.456161 195.540627,105.378958 195.386222,105.301756 L184.809485,94.6478163 Z" id="Shape" fill="#FDFEFE"></path>
            </g>
        </g>
    </g>
</svg>